<svg width="316" height="228" viewBox="0 0 316 228" fill="none" xmlns="http://www.w3.org/2000/svg">
<path d="M183.604 37.5934C163.345 36.8362 144.051 29.786 125.626 22.0697C107.202 14.3533 88.9493 5.81071 69.1913 1.7232C56.4732 -0.906507 41.9302 -1.28038 31.6818 6.07149C21.806 13.1594 18.6194 25.3591 16.9165 36.6886C15.6269 45.2155 14.8694 54.1885 18.4003 62.1688C20.8512 67.7109 25.2054 72.3671 28.2167 77.6737C38.6935 96.1413 31.2874 118.916 19.9341 136.947C14.6127 145.405 8.43363 153.473 4.32364 162.478C0.213655 171.482 -1.69578 181.8 1.89146 190.987C5.45366 200.098 13.946 206.928 23.1457 211.723C41.83 221.491 63.8386 224.29 85.3151 225.861C132.838 229.367 180.618 227.85 228.269 226.329C245.902 225.767 263.616 225.195 280.964 222.245C290.599 220.611 300.543 218.019 307.536 211.764C316.417 203.824 318.617 190.377 312.667 180.421C302.687 163.719 275.104 159.568 268.12 141.644C264.283 131.779 268.224 120.789 273.805 111.64C285.772 92.0098 305.836 74.7895 306.891 52.3506C307.618 36.9556 297.973 21.5104 283.061 14.2182C267.429 6.57418 245.755 7.53557 234.229 20.1877C222.36 33.2671 201.49 38.2658 183.604 37.5934Z" fill="#FDE3E3" fill-opacity="0.95"/>
<path d="M272.402 205.435C273.69 205.888 275.073 206.001 276.418 205.764C277.762 205.528 279.023 204.948 280.079 204.083C282.768 201.825 283.612 198.106 284.297 194.663L286.326 184.477L282.078 187.403C279.024 189.507 275.9 191.678 273.785 194.725C271.67 197.773 270.746 201.933 272.446 205.23" fill="#6A6A6A"/>
<path d="M272.765 217.767C272.335 214.634 271.893 211.462 272.195 208.296C272.463 205.484 273.32 202.738 275.066 200.487C275.993 199.294 277.121 198.271 278.399 197.466C278.732 197.256 279.039 197.784 278.707 197.993C276.496 199.391 274.785 201.455 273.823 203.888C272.759 206.593 272.589 209.542 272.773 212.415C272.884 214.153 273.119 215.879 273.356 217.604C273.375 217.682 273.363 217.764 273.324 217.834C273.284 217.904 273.219 217.956 273.142 217.98C273.064 218.001 272.981 217.99 272.911 217.95C272.84 217.91 272.788 217.844 272.767 217.766L272.765 217.767Z" fill="#AEAEAE"/>
<path d="M307.078 217.641C307.078 217.641 302.617 206.659 316 198.422L307.078 217.641Z" fill="#6A6A6A"/>
<path d="M301.592 217.441C301.592 217.441 300.231 209.614 289.699 209.681L301.592 217.441Z" fill="#6A6A6A"/>
<path d="M55.0826 121.329H153.153V52.138H55.0826V121.329Z" fill="#FFCFCF"/>
<path d="M45.9777 113.79H144.048V44.5992H45.9777V113.79Z" fill="#FFCFCF"/>
<path d="M37 106.881H135.071V37.6909H37V106.881Z" fill="#FFCFCF"/>
<path d="M155.252 123.428H52.9837V50.0388H155.252V123.428ZM55.0825 121.329H153.153V52.138H55.0825V121.329Z" fill="#3F3D56"/>
<path d="M46.4021 114.97H45.679V44.6512H143.752V45.38H46.4021V114.97Z" fill="#3F3D56"/>
<path d="M37.7234 107.319H37V37H135.073V37.7288H37.7234V107.319Z" fill="#3F3D56"/>
<path d="M104.118 107.865C115.701 107.865 125.092 98.4041 125.092 86.7332C125.092 75.0623 115.701 65.6011 104.118 65.6011C92.5342 65.6011 83.1437 75.0623 83.1437 86.7332C83.1437 98.4041 92.5342 107.865 104.118 107.865Z" fill="#FFCFCF"/>
<path d="M104.118 108.215C92.3597 108.215 82.7939 98.5784 82.7939 86.7333C82.7939 74.8882 92.3597 65.2514 104.118 65.2514C115.876 65.2514 125.442 74.8882 125.442 86.7333C125.442 98.5784 115.876 108.215 104.118 108.215ZM104.118 65.9511C92.7456 65.9511 83.4935 75.2739 83.4935 86.7333C83.4935 98.1927 92.7456 107.515 104.118 107.515C115.49 107.515 124.742 98.1927 124.742 86.7333C124.742 75.2739 115.49 65.9511 104.118 65.9511Z" fill="#3F3D56"/>
<path d="M98.3211 76.2489V97.5818L115.724 86.7694L98.3211 76.2489Z" fill="#F9574B"/>
<path d="M217.24 213.548H213.327L211.465 198.451H217.241L217.24 213.548Z" fill="#FFB7B7"/>
<path d="M218.238 217.343L205.62 217.342V217.183C205.62 215.88 206.137 214.63 207.058 213.709C207.979 212.788 209.229 212.27 210.531 212.27H210.531L218.239 212.271L218.238 217.343Z" fill="#2F2E41"/>
<path d="M250.863 207.827L247.582 209.96L237.793 198.318L242.636 195.169L250.863 207.827Z" fill="#FFB7B7"/>
<path d="M253.768 210.464L243.188 217.343L243.101 217.209C242.391 216.117 242.144 214.787 242.414 213.513C242.684 212.238 243.449 211.123 244.542 210.413L244.542 210.413L251.003 206.211L253.768 210.464Z" fill="#2F2E41"/>
<path d="M227.24 71.0431C229.231 71.0431 230.846 69.4284 230.846 67.4365C230.846 65.4447 229.231 63.83 227.24 63.83C225.249 63.83 223.634 65.4447 223.634 67.4365C223.634 69.4284 225.249 71.0431 227.24 71.0431Z" fill="#2F2E41"/>
<path d="M223.836 68.7482C223.46 68.2501 223.22 67.6629 223.139 67.044C223.058 66.4252 223.138 65.7958 223.373 65.2175C223.608 64.6393 223.989 64.1318 224.479 63.7448C224.968 63.3578 225.55 63.1046 226.167 63.0097C225.666 62.996 225.168 63.0866 224.705 63.276C224.241 63.4653 223.822 63.7491 223.474 64.1094C223.126 64.4697 222.857 64.8985 222.684 65.3685C222.511 65.8384 222.438 66.3393 222.469 66.8392C222.501 67.339 222.636 67.8268 222.866 68.2716C223.096 68.7164 223.416 69.1083 223.806 69.4224C224.196 69.7365 224.648 69.9659 225.131 70.096C225.615 70.2261 226.12 70.254 226.615 70.178C226.074 70.164 225.543 70.0282 225.062 69.7807C224.581 69.5331 224.162 69.1802 223.836 68.7482Z" fill="#2F2E41"/>
<path d="M223.504 90.7924C229.354 90.7924 234.097 86.0492 234.097 80.1981C234.097 74.3471 229.354 69.6039 223.504 69.6039C217.654 69.6039 212.912 74.3471 212.912 80.1981C212.912 86.0492 217.654 90.7924 223.504 90.7924Z" fill="#2F2E41"/>
<path d="M213.635 76.3389C214.781 73.8424 216.852 71.889 219.411 70.891C221.97 69.8929 224.817 69.9284 227.35 70.9898C227.243 70.9363 227.137 70.882 227.028 70.8317C224.475 69.6593 221.561 69.5493 218.927 70.5259C216.292 71.5025 214.154 73.4857 212.982 76.0393C211.81 78.5928 211.7 81.5074 212.676 84.142C213.653 86.7766 215.635 88.9153 218.189 90.0877C218.298 90.1379 218.408 90.1831 218.519 90.2293C216.063 88.9995 214.18 86.8633 213.269 84.2717C212.358 81.6801 212.489 78.8357 213.635 76.3389Z" fill="#2F2E41"/>
<path d="M236.357 135.792L243.948 175.178L253.911 204.599L237.78 207.921L222.123 149.079L221.648 205.549L201.247 206.023L205.992 172.331L211.752 134.293L236.357 135.792Z" fill="#2F2E41"/>
<path d="M223.538 90.7193C227.468 90.7193 230.654 87.5324 230.654 83.6012C230.654 79.67 227.468 76.4832 223.538 76.4832C219.607 76.4832 216.421 79.67 216.421 83.6012C216.421 87.5324 219.607 90.7193 223.538 90.7193Z" fill="#FFB8B8"/>
<path d="M230.189 94.2333L219.276 94.5068L211.685 98.3031L212.634 120.132L210.794 136.848C210.794 136.848 210.107 139.468 214.851 141.84C216.369 142.6 218.325 142.921 220.282 143.008C224.291 143.138 228.224 141.894 231.429 139.483C232.424 138.753 233.527 138.266 234.459 138.639C236.831 139.588 237.305 136.741 237.305 136.741L234.459 122.979L238.729 109.893L234.416 95.8454L230.189 94.2333Z" fill="#F9574B"/>
<path d="M216.968 76.1587V84.0839H218.803L221.139 81.5813L220.826 84.0839H228.937L228.437 81.5813L229.438 84.0839H230.731V76.1587H216.968Z" fill="#2F2E41"/>
<path d="M232.155 81.6273C232.135 81.4127 232.035 81.2134 231.876 81.0683C231.716 80.9231 231.508 80.8425 231.293 80.842H230.422V86.5836H231.293C231.508 86.5832 231.716 86.5025 231.876 86.3574C232.035 86.2122 232.135 86.0129 232.155 85.7983C232.589 85.6814 232.973 85.4247 233.246 85.0679C233.52 84.7112 233.668 84.2742 233.668 83.8246V83.6011C233.668 83.1515 233.52 82.7145 233.246 82.3577C232.973 82.001 232.589 81.7443 232.155 81.6273Z" fill="#F9574B"/>
<path d="M216.416 85.8709H215.453C215.184 85.8709 214.918 85.8179 214.67 85.7151C214.422 85.6123 214.196 85.4616 214.006 85.2715C213.816 85.0815 213.666 84.856 213.563 84.6077C213.46 84.3594 213.407 84.0933 213.407 83.8246V83.6011C213.407 83.3323 213.46 83.0663 213.563 82.818C213.666 82.5697 213.816 82.3442 214.006 82.1541C214.196 81.9641 214.422 81.8134 214.67 81.7106C214.918 81.6077 215.184 81.5548 215.453 81.5548H216.416V85.8709V85.8709Z" fill="#F9574B"/>
<path d="M216.653 86.5836H215.782C215.551 86.5836 215.33 86.4918 215.167 86.3285C215.003 86.1651 214.911 85.9435 214.911 85.7125V81.7132C214.911 81.4821 215.003 81.2606 215.167 81.0972C215.33 80.9338 215.551 80.842 215.782 80.842H216.653V86.5836Z" fill="#F9574B"/>
<path d="M231.689 81.8553H231.051C231.051 77.3456 227.71 73.6767 223.603 73.6767C219.497 73.6767 216.156 77.3455 216.156 81.8553H215.517C215.517 76.9936 219.145 73.0382 223.603 73.0382C228.062 73.0382 231.689 76.9936 231.689 81.8553Z" fill="#F9574B"/>
<path d="M205.68 148.386C206.065 148.176 206.398 147.885 206.657 147.532C206.917 147.18 207.096 146.774 207.181 146.345C207.267 145.916 207.258 145.473 207.154 145.048C207.05 144.623 206.855 144.226 206.581 143.884L209.868 137.885L206.71 134.998L202.187 143.535C201.644 144.033 201.303 144.713 201.228 145.446C201.153 146.179 201.349 146.915 201.78 147.512C202.21 148.11 202.845 148.529 203.564 148.69C204.283 148.851 205.036 148.743 205.68 148.386V148.386Z" fill="#FFB7B7"/>
<path d="M214.057 98.3032L212.78 97.6773C212.78 97.6773 209.787 98.3032 208.838 100.201C207.89 102.099 205.517 121.555 205.517 121.555L203.619 134.368C203.619 134.368 202.196 134.368 202.196 135.792C202.196 137.215 200.298 141.012 201.722 141.012C203.145 141.012 208.838 141.012 209.787 140.062C210.736 139.113 212.634 135.317 212.16 134.843C211.685 134.368 210.736 134.368 210.736 134.368L212.071 121.523L214.057 98.3032Z" fill="#F9574B"/>
<path d="M239.556 143.926C239.238 143.626 238.989 143.26 238.827 142.853C238.665 142.446 238.595 142.009 238.62 141.572C238.646 141.135 238.767 140.709 238.975 140.324C239.183 139.939 239.473 139.604 239.824 139.343L238.162 132.707L241.947 130.713L244.163 140.118C244.563 140.737 244.721 141.481 244.608 142.209C244.495 142.938 244.119 143.599 243.551 144.069C242.983 144.538 242.263 144.783 241.527 144.756C240.79 144.73 240.089 144.435 239.556 143.926Z" fill="#FFB7B7"/>
<path d="M234.795 117.324L236.13 130.17C236.13 130.17 235.181 130.17 234.706 130.644C234.232 131.119 236.13 134.915 237.078 135.864C238.027 136.813 243.721 136.813 245.144 136.813C246.567 136.813 244.67 133.017 244.67 131.593C244.67 130.17 243.246 130.17 243.246 130.17L241.348 117.357C241.348 117.357 238.976 100 238.027 98.1021C237.078 96.2039 234.086 95.5781 234.086 95.5781L232.808 96.2039L234.795 117.324Z" fill="#F9574B"/>
<path d="M208.774 144.066L208.713 144.105L207.649 142.427C207.568 142.3 207.463 142.189 207.339 142.103C207.216 142.016 207.076 141.954 206.929 141.921C206.781 141.888 206.629 141.884 206.48 141.91C206.331 141.936 206.189 141.991 206.062 142.072L202.507 144.328C202.25 144.491 202.068 144.75 202.001 145.048C201.935 145.346 201.989 145.657 202.152 145.915L207.992 155.121C208.073 155.248 208.178 155.358 208.301 155.445C208.425 155.532 208.564 155.594 208.712 155.627C208.859 155.66 209.011 155.663 209.16 155.637C209.309 155.612 209.451 155.557 209.579 155.476L213.133 153.22C213.391 153.057 213.573 152.798 213.639 152.5C213.706 152.202 213.651 151.89 213.488 151.633L209.471 145.3L209.532 145.261L208.774 144.066Z" fill="#3F3D56"/>
<path d="M207.446 142.565L213.277 151.757C213.399 151.95 213.44 152.183 213.39 152.405C213.34 152.627 213.204 152.821 213.012 152.943L209.441 155.209C209.248 155.331 209.015 155.372 208.793 155.322C208.571 155.272 208.377 155.136 208.255 154.944L202.425 145.752C202.303 145.559 202.262 145.327 202.312 145.104C202.361 144.882 202.497 144.688 202.69 144.566L203.123 144.291C203.135 144.357 203.163 144.419 203.204 144.472C203.246 144.524 203.299 144.566 203.361 144.593C203.422 144.62 203.489 144.631 203.555 144.626C203.622 144.621 203.687 144.6 203.743 144.564L205.779 143.272C205.836 143.236 205.883 143.187 205.916 143.128C205.949 143.07 205.967 143.005 205.969 142.938C205.97 142.871 205.956 142.805 205.926 142.745C205.896 142.685 205.852 142.633 205.797 142.595L206.261 142.3C206.453 142.178 206.686 142.137 206.909 142.187C207.131 142.237 207.324 142.373 207.446 142.565Z" fill="#F9574B"/>
<path d="M313.093 218H179.817C179.725 218 179.636 217.963 179.57 217.898C179.505 217.832 179.468 217.743 179.468 217.65C179.468 217.557 179.505 217.468 179.57 217.403C179.636 217.337 179.725 217.3 179.817 217.3H313.093C313.186 217.3 313.275 217.337 313.34 217.403C313.406 217.468 313.443 217.557 313.443 217.65C313.443 217.743 313.406 217.832 313.34 217.898C313.275 217.963 313.186 218 313.093 218Z" fill="#6A6A6A"/>
</svg>
