<svg width="216" height="50" viewBox="0 0 216 50" fill="none" xmlns="http://www.w3.org/2000/svg">
<path fill-rule="evenodd" clip-rule="evenodd" d="M45.8333 43.75C46.9384 43.75 47.9982 43.311 48.7796 42.5296C49.561 41.7482 50 40.6884 50 39.5833V10.4167C50 9.3116 49.561 8.25179 48.7796 7.47039C47.9982 6.68899 46.9384 6.25 45.8333 6.25H6.24998C5.14491 6.25 4.0851 6.68899 3.3037 7.47039C2.5223 8.25179 2.08331 9.3116 2.08331 10.4167V39.5833C2.08331 40.6884 2.5223 41.7482 3.3037 42.5296C4.0851 43.311 5.14491 43.75 6.24998 43.75H45.8333ZM22.9166 10.4167H18.7187V27.0833H16.6354V39.5833H25V27.0833H22.9166V10.4167ZM37.5312 39.5833H45.8333V10.4167H39.6146V27.0833H37.5312V39.5833ZM35.4479 27.0833H33.3646V10.4167H29.1666V27.0833H27.0833V39.5833H35.4479V27.0833ZM14.5521 39.5833V27.0833H12.4687V10.4167H6.24998V39.5833H14.5521Z" fill="#F9574B"/>
<path d="M74.98 36H70.78L61.27 21.63V36H57.07V15.03H61.27L70.78 29.43V15.03H74.98V36ZM81.2605 17.4C80.5205 17.4 79.9005 17.17 79.4005 16.71C78.9205 16.23 78.6805 15.64 78.6805 14.94C78.6805 14.24 78.9205 13.66 79.4005 13.2C79.9005 12.72 80.5205 12.48 81.2605 12.48C82.0005 12.48 82.6105 12.72 83.0905 13.2C83.5905 13.66 83.8405 14.24 83.8405 14.94C83.8405 15.64 83.5905 16.23 83.0905 16.71C82.6105 17.17 82.0005 17.4 81.2605 17.4ZM83.3305 19.38V36H79.1305V19.38H83.3305ZM86.4002 27.69C86.4002 25.97 86.7502 24.47 87.4502 23.19C88.1502 21.89 89.1202 20.89 90.3602 20.19C91.6002 19.47 93.0202 19.11 94.6202 19.11C96.6802 19.11 98.3802 19.63 99.7202 20.67C101.08 21.69 101.99 23.13 102.45 24.99H97.9202C97.6802 24.27 97.2702 23.71 96.6902 23.31C96.1302 22.89 95.4302 22.68 94.5902 22.68C93.3902 22.68 92.4402 23.12 91.7402 24C91.0402 24.86 90.6902 26.09 90.6902 27.69C90.6902 29.27 91.0402 30.5 91.7402 31.38C92.4402 32.24 93.3902 32.67 94.5902 32.67C96.2902 32.67 97.4002 31.91 97.9202 30.39H102.45C101.99 32.19 101.08 33.62 99.7202 34.68C98.3602 35.74 96.6602 36.27 94.6202 36.27C93.0202 36.27 91.6002 35.92 90.3602 35.22C89.1202 34.5 88.1502 33.5 87.4502 32.22C86.7502 30.92 86.4002 29.41 86.4002 27.69ZM120.977 27.33C120.977 27.93 120.937 28.47 120.857 28.95H108.707C108.807 30.15 109.227 31.09 109.967 31.77C110.707 32.45 111.617 32.79 112.697 32.79C114.257 32.79 115.367 32.12 116.027 30.78H120.557C120.077 32.38 119.157 33.7 117.797 34.74C116.437 35.76 114.767 36.27 112.787 36.27C111.187 36.27 109.747 35.92 108.467 35.22C107.207 34.5 106.217 33.49 105.497 32.19C104.797 30.89 104.447 29.39 104.447 27.69C104.447 25.97 104.797 24.46 105.497 23.16C106.197 21.86 107.177 20.86 108.437 20.16C109.697 19.46 111.147 19.11 112.787 19.11C114.367 19.11 115.777 19.45 117.017 20.13C118.277 20.81 119.247 21.78 119.927 23.04C120.627 24.28 120.977 25.71 120.977 27.33ZM116.627 26.13C116.607 25.05 116.217 24.19 115.457 23.55C114.697 22.89 113.767 22.56 112.667 22.56C111.627 22.56 110.747 22.88 110.027 23.52C109.327 24.14 108.897 25.01 108.737 26.13H116.627Z" fill="#F9574B"/>
<path d="M146.461 21.54C146.461 22.66 146.191 23.71 145.651 24.69C145.131 25.67 144.301 26.46 143.161 27.06C142.041 27.66 140.621 27.96 138.901 27.96H135.391V36H131.191V15.06H138.901C140.521 15.06 141.901 15.34 143.041 15.9C144.181 16.46 145.031 17.23 145.591 18.21C146.171 19.19 146.461 20.3 146.461 21.54ZM138.721 24.57C139.881 24.57 140.741 24.31 141.301 23.79C141.861 23.25 142.141 22.5 142.141 21.54C142.141 19.5 141.001 18.48 138.721 18.48H135.391V24.57H138.721ZM151.573 17.4C150.833 17.4 150.213 17.17 149.713 16.71C149.233 16.23 148.993 15.64 148.993 14.94C148.993 14.24 149.233 13.66 149.713 13.2C150.213 12.72 150.833 12.48 151.573 12.48C152.313 12.48 152.923 12.72 153.403 13.2C153.903 13.66 154.153 14.24 154.153 14.94C154.153 15.64 153.903 16.23 153.403 16.71C152.923 17.17 152.313 17.4 151.573 17.4ZM153.643 19.38V36H149.443V19.38H153.643ZM156.713 27.63C156.713 25.95 157.043 24.46 157.703 23.16C158.383 21.86 159.293 20.86 160.433 20.16C161.593 19.46 162.883 19.11 164.303 19.11C165.543 19.11 166.623 19.36 167.543 19.86C168.483 20.36 169.233 20.99 169.793 21.75V19.38H174.023V36H169.793V33.57C169.253 34.35 168.503 35 167.543 35.52C166.603 36.02 165.513 36.27 164.273 36.27C162.873 36.27 161.593 35.91 160.433 35.19C159.293 34.47 158.383 33.46 157.703 32.16C157.043 30.84 156.713 29.33 156.713 27.63ZM169.793 27.69C169.793 26.67 169.593 25.8 169.193 25.08C168.793 24.34 168.253 23.78 167.573 23.4C166.893 23 166.163 22.8 165.383 22.8C164.603 22.8 163.883 22.99 163.223 23.37C162.563 23.75 162.023 24.31 161.603 25.05C161.203 25.77 161.003 26.63 161.003 27.63C161.003 28.63 161.203 29.51 161.603 30.27C162.023 31.01 162.563 31.58 163.223 31.98C163.903 32.38 164.623 32.58 165.383 32.58C166.163 32.58 166.893 32.39 167.573 32.01C168.253 31.61 168.793 31.05 169.193 30.33C169.593 29.59 169.793 28.71 169.793 27.69ZM187.335 19.14C189.315 19.14 190.915 19.77 192.135 21.03C193.355 22.27 193.965 24.01 193.965 26.25V36H189.765V26.82C189.765 25.5 189.435 24.49 188.775 23.79C188.115 23.07 187.215 22.71 186.075 22.71C184.915 22.71 183.995 23.07 183.315 23.79C182.655 24.49 182.325 25.5 182.325 26.82V36H178.125V19.38H182.325V21.45C182.885 20.73 183.595 20.17 184.455 19.77C185.335 19.35 186.295 19.14 187.335 19.14ZM205.339 36.27C203.739 36.27 202.299 35.92 201.019 35.22C199.739 34.5 198.729 33.49 197.989 32.19C197.269 30.89 196.909 29.39 196.909 27.69C196.909 25.99 197.279 24.49 198.019 23.19C198.779 21.89 199.809 20.89 201.109 20.19C202.409 19.47 203.859 19.11 205.459 19.11C207.059 19.11 208.509 19.47 209.809 20.19C211.109 20.89 212.129 21.89 212.869 23.19C213.629 24.49 214.009 25.99 214.009 27.69C214.009 29.39 213.619 30.89 212.839 32.19C212.079 33.49 211.039 34.5 209.719 35.22C208.419 35.92 206.959 36.27 205.339 36.27ZM205.339 32.61C206.099 32.61 206.809 32.43 207.469 32.07C208.149 31.69 208.689 31.13 209.089 30.39C209.489 29.65 209.689 28.75 209.689 27.69C209.689 26.11 209.269 24.9 208.429 24.06C207.609 23.2 206.599 22.77 205.399 22.77C204.199 22.77 203.189 23.2 202.369 24.06C201.569 24.9 201.169 26.11 201.169 27.69C201.169 29.27 201.559 30.49 202.339 31.35C203.139 32.19 204.139 32.61 205.339 32.61Z" fill="black"/>
</svg>
