<svg width="553" height="481" viewBox="0 0 553 481" fill="none" xmlns="http://www.w3.org/2000/svg">
<g clip-path="url(#clip0)">
<path d="M553 475.037L157.137 481L0 453.173H245.312L553 475.037Z" fill="#F9574B"/>
<path d="M112.024 456.481C112.024 456.481 112.95 437.088 131.939 439.342L112.024 456.481Z" fill="#3F3D56"/>
<path d="M106.659 438.026C111.907 438.026 116.162 433.774 116.162 428.53C116.162 423.286 111.907 419.034 106.659 419.034C101.41 419.034 97.1548 423.286 97.1548 428.53C97.1548 433.774 101.41 438.026 106.659 438.026Z" fill="#F9574B"/>
<path d="M107.795 444.52H105.112V463.284H107.795V444.52Z" fill="#3F3D56"/>
<path d="M425.002 459.793C425.002 459.793 425.928 440.4 444.917 442.655L425.002 459.793Z" fill="#3F3D56"/>
<path d="M419.636 441.339C424.885 441.339 429.14 437.087 429.14 431.843C429.14 426.598 424.885 422.347 419.636 422.347C414.387 422.347 410.132 426.598 410.132 431.843C410.132 437.087 414.387 441.339 419.636 441.339Z" fill="#F9574B"/>
<path d="M420.772 447.833H418.09V466.596H420.772V447.833Z" fill="#3F3D56"/>
<path d="M470.755 463.106C470.755 463.106 471.681 443.713 490.67 445.967L470.755 463.106Z" fill="#3F3D56"/>
<path d="M465.389 444.651C470.638 444.651 474.893 440.4 474.893 435.155C474.893 429.911 470.638 425.66 465.389 425.66C460.14 425.66 455.885 429.911 455.885 435.155C455.885 440.4 460.14 444.651 465.389 444.651Z" fill="#F9574B"/>
<path d="M466.526 451.146H463.843V469.909H466.526V451.146Z" fill="#3F3D56"/>
<path d="M186.953 447.205C186.953 447.205 187.879 427.812 206.868 430.066L186.953 447.205Z" fill="#3F3D56"/>
<path d="M181.587 428.75C186.836 428.75 191.091 424.499 191.091 419.255C191.091 414.01 186.836 409.759 181.587 409.759C176.339 409.759 172.084 414.01 172.084 419.255C172.084 424.499 176.339 428.75 181.587 428.75Z" fill="#F9574B"/>
<path d="M182.724 435.245H180.041V454.008H182.724V435.245Z" fill="#3F3D56"/>
<path d="M45.7151 450.518C45.7151 450.518 46.6413 431.125 65.6302 433.379L45.7151 450.518Z" fill="#3F3D56"/>
<path d="M40.3497 432.063C45.5985 432.063 49.8535 427.812 49.8535 422.567C49.8535 417.323 45.5985 413.071 40.3497 413.071C35.1009 413.071 30.8459 417.323 30.8459 422.567C30.8459 427.812 35.1009 432.063 40.3497 432.063Z" fill="#F9574B"/>
<path d="M41.486 438.558H38.8033V457.321H41.486V438.558Z" fill="#3F3D56"/>
<path d="M275.498 416.819C332.684 416.819 379.042 370.499 379.042 313.361C379.042 256.222 332.684 209.902 275.498 209.902C218.311 209.902 171.953 256.222 171.953 313.361C171.953 370.499 218.311 416.819 275.498 416.819Z" fill="#3F3D56"/>
<path d="M210.31 321.666C212.881 318.59 216.098 316.115 219.731 314.417C223.365 312.719 227.327 311.839 231.339 311.839C235.35 311.839 239.313 312.719 242.946 314.417C246.58 316.115 249.796 318.59 252.368 321.666C256.768 317.468 259.81 312.051 261.1 306.111C262.391 300.17 261.871 293.98 259.608 288.338C257.346 282.696 253.443 277.86 248.405 274.454C243.366 271.047 237.422 269.227 231.339 269.227C225.255 269.227 219.311 271.047 214.273 274.454C209.234 277.86 205.332 282.696 203.069 288.338C200.807 293.98 200.287 300.17 201.577 306.111C202.868 312.051 205.909 317.468 210.31 321.666Z" fill="white"/>
<path d="M292.536 321.666C295.108 318.59 298.324 316.115 301.958 314.417C305.592 312.719 309.554 311.839 313.566 311.839C317.577 311.839 321.539 312.719 325.173 314.417C328.807 316.115 332.023 318.59 334.595 321.666C338.995 317.468 342.036 312.051 343.327 306.111C344.617 300.171 344.098 293.98 341.835 288.338C339.572 282.696 335.67 277.86 330.632 274.454C325.593 271.047 319.649 269.227 313.566 269.227C307.482 269.227 301.538 271.047 296.499 274.454C291.461 277.86 287.559 282.696 285.296 288.338C283.033 293.98 282.514 300.171 283.804 306.111C285.095 312.051 288.136 317.468 292.536 321.666Z" fill="white"/>
<path d="M220.95 299.762C226.736 299.762 231.426 295.075 231.426 289.294C231.426 283.513 226.736 278.827 220.95 278.827C215.164 278.827 210.474 283.513 210.474 289.294C210.474 295.075 215.164 299.762 220.95 299.762Z" fill="#3F3D56"/>
<path d="M303.174 299.762C308.959 299.762 313.65 295.075 313.65 289.294C313.65 283.513 308.959 278.827 303.174 278.827C297.388 278.827 292.698 283.513 292.698 289.294C292.698 295.075 297.388 299.762 303.174 299.762Z" fill="#3F3D56"/>
<path d="M200.884 351.397C207.612 351.397 213.066 345.948 213.066 339.225C213.066 332.503 207.612 327.054 200.884 327.054C194.157 327.054 188.703 332.503 188.703 339.225C188.703 345.948 194.157 351.397 200.884 351.397Z" fill="#FF6584"/>
<path d="M340.974 351.397C347.702 351.397 353.156 345.948 353.156 339.225C353.156 332.503 347.702 327.054 340.974 327.054C334.247 327.054 328.793 332.503 328.793 339.225C328.793 345.948 334.247 351.397 340.974 351.397Z" fill="#FF6584"/>
<path d="M270.929 314.882L261.793 354.44L277.02 339.225L270.929 314.882Z" fill="#FF6584"/>
<path d="M317.874 467.027L307.501 458.328L307.743 467.027H304.521L304.264 457.829L290.259 467.027H284.397L304.16 454.048L303.394 426.794L302.822 406.211L306.036 406.123L306.616 426.794L307.381 454.023L322.883 467.027H317.874Z" fill="#3F3D56"/>
<path d="M269.143 467.027L258.771 458.328L259.012 467.027H255.799L255.542 457.829L241.537 467.027H235.674L255.429 454.048L254.664 426.794L254.092 406.211L257.313 406.123L257.893 426.794L258.65 454.023L274.153 467.027H269.143Z" fill="#3F3D56"/>
<path d="M277.02 202.295C274.179 202.295 271.673 204.5 269.997 207.887C268.52 202.794 265.417 199.252 261.793 199.252C261.547 199.277 261.302 199.318 261.062 199.375C259.669 193.937 256.431 190.124 252.657 190.124C247.611 190.124 243.521 196.935 243.521 205.338C243.521 213.741 247.611 220.553 252.657 220.553C252.903 220.528 253.147 220.487 253.388 220.43C254.781 225.868 258.019 229.681 261.793 229.681C264.634 229.681 267.141 227.476 268.816 224.089C270.293 229.182 273.396 232.724 277.02 232.724C282.066 232.724 286.157 225.912 286.157 217.51C286.157 209.107 282.066 202.295 277.02 202.295Z" fill="#3F3D56"/>
<path d="M178.307 352.567C174.308 352.567 170.348 351.78 166.653 350.251C162.958 348.721 159.601 346.48 156.773 343.655C153.945 340.829 151.702 337.474 150.171 333.783C148.641 330.091 147.853 326.134 147.853 322.138V306.923C147.853 298.853 151.062 291.114 156.773 285.407C162.484 279.7 170.23 276.495 178.307 276.495V352.567Z" fill="#F9574B"/>
<path d="M372.688 276.495C376.687 276.495 380.647 277.282 384.342 278.811C388.037 280.34 391.394 282.581 394.222 285.407C397.05 288.233 399.293 291.587 400.824 295.279C402.354 298.971 403.142 302.927 403.142 306.923V322.138C403.142 326.134 402.354 330.091 400.824 333.783C399.293 337.474 397.05 340.829 394.222 343.654C391.394 346.48 388.037 348.721 384.342 350.251C380.647 351.78 376.687 352.567 372.688 352.567V276.495H372.688Z" fill="#F9574B"/>
<path d="M388.646 309.314H383.814C383.814 248.085 333.959 198.272 272.679 198.272C211.399 198.272 161.544 248.085 161.544 309.314H156.712C156.712 245.423 208.734 193.444 272.679 193.444C336.624 193.444 388.646 245.423 388.646 309.314Z" fill="#F9574B"/>
<path d="M106.858 216.263L106.859 216.261L104.589 215.317L95.0107 211.271L91.5775 209.821L91.314 210.485L86.7021 222.12L99.6815 227.609L99.7496 227.671L98.875 229.732C98.7553 229.92 98.6531 230.119 98.5698 230.326C97.9571 231.872 99.1143 233.41 100.208 233.842C101.302 234.275 102.686 233.373 103.298 231.828C103.903 230.303 103.312 228.366 102.246 227.898L102.247 227.896L99.977 226.952L92.2114 223.935L96.6485 212.741L95.9908 212.481L91.5521 223.679L90.5919 223.306L95.0479 212.064L95.1653 212.114L104.293 215.974L104.362 216.036L103.487 218.097C103.367 218.285 103.265 218.484 103.182 218.691C102.569 220.237 103.726 221.775 104.82 222.207C105.914 222.64 107.298 221.738 107.91 220.193C108.515 218.668 107.924 216.731 106.858 216.263Z" fill="#3F3D56"/>
<path d="M151.782 244.827C147.07 242.135 148.013 236.229 148.013 236.229C147.895 232.391 144.722 232.935 144.722 232.935L143.567 233.198C143.031 232.949 142.44 232.84 141.85 232.881L140.093 233.176C144.093 234.115 143.765 237.458 143.765 237.458L144.325 241.367L133.844 237.143L135.047 234.308C135.214 234.046 135.356 233.77 135.471 233.482C136.322 231.335 134.715 229.2 133.196 228.598C131.676 227.997 129.755 229.25 128.904 231.397C128.064 233.514 128.885 236.205 130.365 236.855L130.364 236.857L133.517 238.169L133.54 238.095L151.782 244.827ZM146.46 237.958L146.796 241.7C145.609 240.036 145.052 238.006 145.223 235.97C145.195 235.246 144.95 234.546 144.521 233.963C145.181 234.385 145.712 234.982 146.054 235.687C146.396 236.392 146.537 237.178 146.46 237.958V237.958Z" fill="#3F3D56"/>
<path d="M71.833 189.489L71.8343 189.487L68.6814 188.175L55.5041 183.057L58.8299 180.1C59.4806 179.234 60.4414 178.652 61.5114 178.477C62.5814 178.302 63.6778 178.547 64.5712 179.161L63.5391 177.628C63.5391 177.628 61.5988 175.061 58.8829 177.777C58.8829 177.777 55.5224 182.727 50.2439 181.465L68.271 189.089L68.3656 189.174L67.1509 192.036C66.9845 192.298 66.8426 192.575 66.727 192.862C65.8761 195.009 67.4833 197.145 69.0026 197.746C70.522 198.347 72.4436 197.094 73.2946 194.947C74.1339 192.83 73.3136 190.14 71.833 189.489Z" fill="#3F3D56"/>
<path d="M120.075 172.738L118.861 175.6C118.694 175.862 118.552 176.138 118.437 176.426C117.586 178.573 119.193 180.708 120.712 181.31C122.232 181.911 124.153 180.658 125.004 178.511C125.844 176.394 125.023 173.703 123.543 173.053L123.544 173.051L120.391 171.739L109.605 167.55L115.768 152.002L114.855 151.641L108.69 167.194L107.356 166.676L113.545 151.062L113.708 151.131L126.386 156.493L126.481 156.578L125.266 159.44C125.1 159.702 124.958 159.979 124.842 160.266C123.991 162.413 125.598 164.549 127.118 165.15C128.637 165.751 130.559 164.498 131.41 162.351C132.249 160.234 131.429 157.544 129.948 156.894L129.949 156.891L126.797 155.579L113.912 150.137L113.911 150.137L113.493 149.96L108.725 147.946L101.954 165.029L119.981 172.653L120.075 172.738Z" fill="#3F3D56"/>
<path d="M62.947 85.2495L62.9492 85.2451L57.5217 82.9867L34.8378 74.1761L40.563 69.0866C40.563 69.0866 44.3713 63.807 50.4462 67.469L48.6696 64.8306C48.6696 64.8306 45.3295 60.4124 40.6542 65.087C40.6542 65.087 34.8693 73.608 25.7827 71.436L56.8153 84.5595L56.9782 84.707L54.887 89.6336C54.6007 90.0843 54.3565 90.5602 54.1574 91.0555C52.6925 94.7512 55.4592 98.4273 58.0747 99.4623C60.6902 100.497 63.9981 98.3404 65.4631 94.6448C66.9079 90.9995 65.4958 86.3685 62.947 85.2495Z" fill="#3F3D56"/>
<path d="M79.6036 159.26C68.3383 152.824 70.5926 138.702 70.5926 138.702C70.3092 129.528 62.7229 130.826 62.7229 130.826L59.962 131.456C58.6794 130.861 57.2671 130.6 55.8565 130.697L51.6565 131.404C61.22 133.649 60.4343 141.642 60.4343 141.642L61.7741 150.989L36.7152 140.888L39.5923 134.11C39.9899 133.484 40.3292 132.823 40.6058 132.135C42.6404 127.002 38.7977 121.896 35.1649 120.459C31.5322 119.021 26.9379 122.017 24.9033 127.15C22.8964 132.213 24.8577 138.645 28.3977 140.199L28.3947 140.205L35.933 143.342L35.9891 143.164L79.6036 159.26ZM66.8782 142.837L67.6845 151.815C62.9532 145.539 63.9202 138.083 63.9202 138.083C63.8535 136.352 63.269 134.68 62.242 133.284C67.677 136.534 66.8782 142.837 66.8782 142.837H66.8782Z" fill="#3F3D56"/>
</g>
<defs>
<clipPath id="clip0">
<rect width="553" height="481" fill="white"/>
</clipPath>
</defs>
</svg>
